<svg width="51" height="51" viewBox="0 0 51 51" fill="none" xmlns="http://www.w3.org/2000/svg">
<path d="M2.91662 36.75L1.88528 30.9773C0.408283 17.234 11.2139 5.25 25.0833 5.25C38.9526 5.25 49.7583 17.234 48.2813 30.9773L47.2499 36.75" stroke="currentColor" stroke-width="3.5" stroke-linecap="round" stroke-linejoin="round"/>
<path d="M15.7872 21.5833C15.3135 14.105 19.4785 5.25 25.0832 5.25M34.4165 21.5833C34.8902 14.105 30.7252 5.25 25.1205 5.25M25.0832 4.08333V1.75M2.9165 36.7733C21.5832 30.0837 28.5832 30.9727 47.2498 36.7733C46.6058 39.3867 46.2535 46.7833 43.4022 48.1763C42.0348 48.8437 40.0748 47.9477 38.6655 47.6117C31.9082 45.997 28.5295 45.1897 25.0832 45.1897C21.6368 45.1897 18.2582 45.997 11.5008 47.6117C10.0915 47.9477 8.1315 48.8437 6.76417 48.1763C3.91284 46.781 3.5605 39.3913 2.9165 36.7733Z" stroke="currentColor" stroke-width="3.5" stroke-linecap="round" stroke-linejoin="round"/>
</svg>
